<?xml version="1.0" encoding="UTF-8" standalone="no"?>
<!-- Created with Inkscape (http://www.inkscape.org/) -->

<svg
   xmlns:osb="http://www.openswatchbook.org/uri/2009/osb"
   xmlns:dc="http://purl.org/dc/elements/1.1/"
   xmlns:cc="http://creativecommons.org/ns#"
   xmlns:rdf="http://www.w3.org/1999/02/22-rdf-syntax-ns#"
   xmlns:svg="http://www.w3.org/2000/svg"
   xmlns="http://www.w3.org/2000/svg"
   xmlns:xlink="http://www.w3.org/1999/xlink"
   xmlns:sodipodi="http://sodipodi.sourceforge.net/DTD/sodipodi-0.dtd"
   xmlns:inkscape="http://www.inkscape.org/namespaces/inkscape"
   width="99.999992"
   height="100"
   id="svg2"
   version="1.1"
   inkscape:version="0.48.2 r9819"
   sodipodi:docname="isaacLogoGuessTheNumberRender.svg"
   inkscape:export-filename="/Users/Benjamin/Pictures/isaacLogoGuessTheNumber.png"
   inkscape:export-xdpi="180.05627"
   inkscape:export-ydpi="180.05627">
  <defs
     id="defs4">
    <linearGradient
       id="linearGradient3915">
      <stop
         style="stop-color:#6f6f6f;stop-opacity:1;"
         offset="0"
         id="stop3917" />
      <stop
         style="stop-color:#3d3d3d;stop-opacity:1;"
         offset="1"
         id="stop3919" />
    </linearGradient>
    <linearGradient
       inkscape:collect="always"
       id="linearGradient3897">
      <stop
         style="stop-color:#000000;stop-opacity:1;"
         offset="0"
         id="stop3899" />
      <stop
         style="stop-color:#000000;stop-opacity:0;"
         offset="1"
         id="stop3901" />
    </linearGradient>
    <linearGradient
       id="linearGradient3873"
       osb:paint="solid">
      <stop
         style="stop-color:#ffccff;stop-opacity:1;"
         offset="0"
         id="stop3875" />
    </linearGradient>
    <linearGradient
       id="linearGradient3867"
       osb:paint="solid">
      <stop
         style="stop-color:#ffccff;stop-opacity:1;"
         offset="0"
         id="stop3869" />
    </linearGradient>
    <linearGradient
       id="linearGradient3861"
       osb:paint="solid">
      <stop
         style="stop-color:#cc2525;stop-opacity:1;"
         offset="0"
         id="stop3863" />
    </linearGradient>
    <inkscape:perspective
       sodipodi:type="inkscape:persp3d"
       inkscape:vp_x="82.857143 : 437.60966 : 1"
       inkscape:vp_y="0 : 1000 : 0"
       inkscape:vp_z="1324.0945 : 331.89538 : 1"
       inkscape:persp3d-origin="372.04724 : 350.78739 : 1"
       id="perspective3812" />
    <radialGradient
       inkscape:collect="always"
       xlink:href="#linearGradient3897"
       id="radialGradient3913"
       cx="49.999996"
       cy="1002.3622"
       fx="49.999996"
       fy="1002.3622"
       r="49.999996"
       gradientTransform="translate(0,-7.6474171e-5)"
       gradientUnits="userSpaceOnUse" />
    <radialGradient
       inkscape:collect="always"
       xlink:href="#linearGradient3915"
       id="radialGradient3921"
       cx="49.999996"
       cy="1002.3622"
       fx="49.999996"
       fy="1002.3622"
       r="49.999996"
       gradientTransform="translate(0,-7.6474171e-5)"
       gradientUnits="userSpaceOnUse" />
    <linearGradient
       inkscape:collect="always"
       xlink:href="#linearGradient3861"
       id="linearGradient3935"
       gradientUnits="userSpaceOnUse"
       x1="-4.90625"
       y1="946.46985"
       x2="2.90625"
       y2="946.46985" />
    <linearGradient
       inkscape:collect="always"
       xlink:href="#linearGradient3861"
       id="linearGradient3937"
       gradientUnits="userSpaceOnUse"
       x1="-4.90625"
       y1="946.46985"
       x2="2.90625"
       y2="946.46985" />
    <linearGradient
       inkscape:collect="always"
       xlink:href="#linearGradient3861"
       id="linearGradient3943"
       gradientUnits="userSpaceOnUse"
       x1="-4.90625"
       y1="946.46985"
       x2="11.34375"
       y2="946.46985" />
    <linearGradient
       inkscape:collect="always"
       xlink:href="#linearGradient3861"
       id="linearGradient3945"
       gradientUnits="userSpaceOnUse"
       x1="-4.90625"
       y1="946.46985"
       x2="11.34375"
       y2="946.46985" />
    <linearGradient
       inkscape:collect="always"
       xlink:href="#linearGradient3861"
       id="linearGradient3951"
       gradientUnits="userSpaceOnUse"
       x1="-4.90625"
       y1="946.46985"
       x2="15.375"
       y2="946.46985" />
    <linearGradient
       inkscape:collect="always"
       xlink:href="#linearGradient3861"
       id="linearGradient3953"
       gradientUnits="userSpaceOnUse"
       x1="-4.90625"
       y1="946.46985"
       x2="15.375"
       y2="946.46985" />
    <filter
       inkscape:collect="always"
       id="filter4095"
       color-interpolation-filters="sRGB">
      <feGaussianBlur
         inkscape:collect="always"
         stdDeviation="0.53992419"
         id="feGaussianBlur4097" />
    </filter>
    <linearGradient
       inkscape:collect="always"
       xlink:href="#linearGradient3861"
       id="linearGradient4124"
       gradientUnits="userSpaceOnUse"
       x1="-4.90625"
       y1="946.46985"
       x2="2.90625"
       y2="946.46985" />
    <linearGradient
       inkscape:collect="always"
       xlink:href="#linearGradient3861"
       id="linearGradient4132"
       gradientUnits="userSpaceOnUse"
       x1="-4.90625"
       y1="946.46985"
       x2="15.375"
       y2="946.46985" />
    <linearGradient
       inkscape:collect="always"
       xlink:href="#linearGradient3861"
       id="linearGradient4140"
       gradientUnits="userSpaceOnUse"
       x1="-4.90625"
       y1="946.46985"
       x2="11.34375"
       y2="946.46985" />
    <linearGradient
       inkscape:collect="always"
       xlink:href="#linearGradient3861"
       id="linearGradient4142"
       gradientUnits="userSpaceOnUse"
       x1="-4.90625"
       y1="946.46985"
       x2="2.90625"
       y2="946.46985" />
    <linearGradient
       inkscape:collect="always"
       xlink:href="#linearGradient3861"
       id="linearGradient4144"
       gradientUnits="userSpaceOnUse"
       x1="-4.90625"
       y1="946.46985"
       x2="2.90625"
       y2="946.46985" />
    <linearGradient
       inkscape:collect="always"
       xlink:href="#linearGradient3861"
       id="linearGradient4146"
       gradientUnits="userSpaceOnUse"
       x1="-4.90625"
       y1="946.46985"
       x2="15.375"
       y2="946.46985" />
    <linearGradient
       inkscape:collect="always"
       xlink:href="#linearGradient3861"
       id="linearGradient4148"
       gradientUnits="userSpaceOnUse"
       x1="-4.90625"
       y1="946.46985"
       x2="15.375"
       y2="946.46985" />
    <linearGradient
       inkscape:collect="always"
       xlink:href="#linearGradient3861"
       id="linearGradient4150"
       gradientUnits="userSpaceOnUse"
       x1="-4.90625"
       y1="946.46985"
       x2="11.34375"
       y2="946.46985" />
    <linearGradient
       inkscape:collect="always"
       xlink:href="#linearGradient3861"
       id="linearGradient4152"
       gradientUnits="userSpaceOnUse"
       x1="-4.90625"
       y1="946.46985"
       x2="11.34375"
       y2="946.46985" />
    <linearGradient
       inkscape:collect="always"
       xlink:href="#linearGradient3861"
       id="linearGradient4214"
       gradientUnits="userSpaceOnUse"
       x1="-4.90625"
       y1="946.46985"
       x2="2.90625"
       y2="946.46985" />
    <linearGradient
       inkscape:collect="always"
       xlink:href="#linearGradient3861"
       id="linearGradient4216"
       gradientUnits="userSpaceOnUse"
       x1="-4.90625"
       y1="946.46985"
       x2="15.375"
       y2="946.46985" />
    <linearGradient
       inkscape:collect="always"
       xlink:href="#linearGradient3861"
       id="linearGradient4218"
       gradientUnits="userSpaceOnUse"
       x1="-4.90625"
       y1="946.46985"
       x2="11.34375"
       y2="946.46985" />
    <linearGradient
       inkscape:collect="always"
       xlink:href="#linearGradient3861"
       id="linearGradient4261"
       gradientUnits="userSpaceOnUse"
       x1="-4.90625"
       y1="946.46985"
       x2="2.90625"
       y2="946.46985" />
    <linearGradient
       inkscape:collect="always"
       xlink:href="#linearGradient3861"
       id="linearGradient4263"
       gradientUnits="userSpaceOnUse"
       x1="-4.90625"
       y1="946.46985"
       x2="2.90625"
       y2="946.46985" />
    <linearGradient
       inkscape:collect="always"
       xlink:href="#linearGradient3861"
       id="linearGradient4265"
       gradientUnits="userSpaceOnUse"
       x1="-4.90625"
       y1="946.46985"
       x2="2.90625"
       y2="946.46985" />
    <linearGradient
       inkscape:collect="always"
       xlink:href="#linearGradient3861"
       id="linearGradient4267"
       gradientUnits="userSpaceOnUse"
       x1="-4.90625"
       y1="946.46985"
       x2="2.90625"
       y2="946.46985" />
    <linearGradient
       inkscape:collect="always"
       xlink:href="#linearGradient3861"
       id="linearGradient4269"
       gradientUnits="userSpaceOnUse"
       x1="-4.90625"
       y1="946.46985"
       x2="2.90625"
       y2="946.46985" />
    <linearGradient
       inkscape:collect="always"
       xlink:href="#linearGradient3861"
       id="linearGradient4271"
       gradientUnits="userSpaceOnUse"
       x1="-4.90625"
       y1="946.46985"
       x2="15.375"
       y2="946.46985" />
    <linearGradient
       inkscape:collect="always"
       xlink:href="#linearGradient3861"
       id="linearGradient4273"
       gradientUnits="userSpaceOnUse"
       x1="-4.90625"
       y1="946.46985"
       x2="15.375"
       y2="946.46985" />
    <linearGradient
       inkscape:collect="always"
       xlink:href="#linearGradient3861"
       id="linearGradient4275"
       gradientUnits="userSpaceOnUse"
       x1="-4.90625"
       y1="946.46985"
       x2="15.375"
       y2="946.46985" />
    <linearGradient
       inkscape:collect="always"
       xlink:href="#linearGradient3861"
       id="linearGradient4277"
       gradientUnits="userSpaceOnUse"
       x1="-4.90625"
       y1="946.46985"
       x2="15.375"
       y2="946.46985" />
    <linearGradient
       inkscape:collect="always"
       xlink:href="#linearGradient3861"
       id="linearGradient4279"
       gradientUnits="userSpaceOnUse"
       x1="-4.90625"
       y1="946.46985"
       x2="15.375"
       y2="946.46985" />
    <linearGradient
       inkscape:collect="always"
       xlink:href="#linearGradient3861"
       id="linearGradient4281"
       gradientUnits="userSpaceOnUse"
       x1="-4.90625"
       y1="946.46985"
       x2="15.375"
       y2="946.46985" />
    <linearGradient
       inkscape:collect="always"
       xlink:href="#linearGradient3861"
       id="linearGradient4283"
       gradientUnits="userSpaceOnUse"
       x1="-4.90625"
       y1="946.46985"
       x2="15.375"
       y2="946.46985" />
    <linearGradient
       inkscape:collect="always"
       xlink:href="#linearGradient3861"
       id="linearGradient4285"
       gradientUnits="userSpaceOnUse"
       x1="-4.90625"
       y1="946.46985"
       x2="15.375"
       y2="946.46985" />
    <linearGradient
       inkscape:collect="always"
       xlink:href="#linearGradient3861"
       id="linearGradient4287"
       gradientUnits="userSpaceOnUse"
       x1="-4.90625"
       y1="946.46985"
       x2="15.375"
       y2="946.46985" />
    <linearGradient
       inkscape:collect="always"
       xlink:href="#linearGradient3861"
       id="linearGradient4289"
       gradientUnits="userSpaceOnUse"
       x1="-4.90625"
       y1="946.46985"
       x2="11.34375"
       y2="946.46985" />
    <linearGradient
       inkscape:collect="always"
       xlink:href="#linearGradient3861"
       id="linearGradient4291"
       gradientUnits="userSpaceOnUse"
       x1="-4.90625"
       y1="946.46985"
       x2="11.34375"
       y2="946.46985" />
    <linearGradient
       inkscape:collect="always"
       xlink:href="#linearGradient3861"
       id="linearGradient4293"
       gradientUnits="userSpaceOnUse"
       x1="-4.90625"
       y1="946.46985"
       x2="11.34375"
       y2="946.46985" />
    <linearGradient
       inkscape:collect="always"
       xlink:href="#linearGradient3861"
       id="linearGradient4295"
       gradientUnits="userSpaceOnUse"
       x1="-4.90625"
       y1="946.46985"
       x2="11.34375"
       y2="946.46985" />
    <linearGradient
       inkscape:collect="always"
       xlink:href="#linearGradient3861"
       id="linearGradient4297"
       gradientUnits="userSpaceOnUse"
       x1="-4.90625"
       y1="946.46985"
       x2="11.34375"
       y2="946.46985" />
    <linearGradient
       inkscape:collect="always"
       xlink:href="#linearGradient3861"
       id="linearGradient4299"
       gradientUnits="userSpaceOnUse"
       x1="-4.90625"
       y1="946.46985"
       x2="11.34375"
       y2="946.46985" />
    <linearGradient
       inkscape:collect="always"
       xlink:href="#linearGradient3861"
       id="linearGradient4301"
       gradientUnits="userSpaceOnUse"
       x1="-4.90625"
       y1="946.46985"
       x2="11.34375"
       y2="946.46985" />
    <linearGradient
       inkscape:collect="always"
       xlink:href="#linearGradient3861"
       id="linearGradient4303"
       gradientUnits="userSpaceOnUse"
       x1="-4.90625"
       y1="946.46985"
       x2="11.34375"
       y2="946.46985" />
  </defs>
  <sodipodi:namedview
     id="base"
     pagecolor="#ffffff"
     bordercolor="#666666"
     borderopacity="1.0"
     inkscape:pageopacity="0.0"
     inkscape:pageshadow="2"
     inkscape:zoom="3.959798"
     inkscape:cx="72.769754"
     inkscape:cy="51.006853"
     inkscape:document-units="px"
     inkscape:current-layer="layer2"
     showgrid="false"
     showguides="true"
     inkscape:guide-bbox="true"
     inkscape:window-width="1280"
     inkscape:window-height="752"
     inkscape:window-x="0"
     inkscape:window-y="0"
     inkscape:window-maximized="1"
     fit-margin-top="0"
     fit-margin-left="0"
     fit-margin-right="0"
     fit-margin-bottom="0" />
  <metadata
     id="metadata7">
    <rdf:RDF>
      <cc:Work
         rdf:about="">
        <dc:format>image/svg+xml</dc:format>
        <dc:type
           rdf:resource="http://purl.org/dc/dcmitype/StillImage" />
        <dc:title></dc:title>
      </cc:Work>
    </rdf:RDF>
  </metadata>
  <g
     inkscape:label="back"
     inkscape:groupmode="layer"
     id="layer1"
     transform="translate(0,-952.36218)">
    <rect
       style="color:#000000;fill:url(#radialGradient3921);fill-opacity:1;fill-rule:nonzero;stroke:url(#radialGradient3913);stroke-width:0.05;stroke-miterlimit:4;stroke-opacity:1;stroke-dasharray:none;marker:none;visibility:visible;display:inline;overflow:visible;enable-background:accumulate"
       id="rect3832"
       width="99.874992"
       height="99.875"
       x="0.0625"
       y="952.42468"
       ry="12.92149" />
    <path
       sodipodi:type="arc"
       style="opacity:0.30373834;color:#000000;fill:#ffffff;fill-opacity:1;fill-rule:nonzero;stroke:none;stroke-width:0.05;marker:none;visibility:visible;display:inline;overflow:visible;enable-background:accumulate"
       id="path3887"
       sodipodi:cx="71.720833"
       sodipodi:cy="979.25238"
       sodipodi:rx="27.274118"
       sodipodi:ry="23.107239"
       d="m 98.994951,979.25238 c 0,12.76178 -12.211039,23.10722 -27.274118,23.10722 -15.06308,0 -27.274119,-10.34544 -27.274119,-23.10722 0,-12.76178 12.211039,-23.10724 27.274119,-23.10724 15.063079,0 27.274118,10.34546 27.274118,23.10724 z"
       transform="matrix(0.88415189,0.46719957,-0.46719957,0.88415189,463.28963,81.451826)" />
  </g>
  <g
     inkscape:groupmode="layer"
     id="layer2"
     inkscape:label="text"
     transform="translate(0,-952.36218)">
    <g
       id="g3993"
       style="stroke:#f0ff35;stroke-width:1.89999998;stroke-linejoin:round;stroke-miterlimit:4;stroke-opacity:1;stroke-dasharray:none;filter:url(#filter4095)">
      <g
         transform="matrix(10.240087,0,0,10.240087,60.240083,-8712.3377)"
         style="font-size:4px;font-style:normal;font-variant:normal;font-weight:normal;font-stretch:normal;line-height:125%;letter-spacing:0px;word-spacing:0px;fill:url(#linearGradient4269);fill-opacity:1;stroke:#f0ff35;stroke-width:0.1855453;font-family:Comfortaa;-inkscape-font-specification:Comfortaa"
         id="flowRoot3995">
        <path
           d="m -4.90625,946.46984 c -2e-7,-0.62499 0.1282549,-1.06965 0.3847656,-1.33398 0.1523431,-0.15234 0.3365877,-0.22851 0.5527344,-0.22852 0.2161445,10e-6 0.4003891,0.0762 0.5527344,0.22852 0.2565085,0.26433 0.3847636,0.70899 0.3847656,1.33398 -2e-6,0.62501 -0.1282571,1.06967 -0.3847656,1.33399 -0.1523453,0.15234 -0.3365899,0.22851 -0.5527344,0.22851 -0.2161467,0 -0.4003913,-0.0762 -0.5527344,-0.22851 -0.2565107,-0.26432 -0.3847658,-0.70898 -0.3847656,-1.33399 m 0.9375,-1.25 c -0.1289072,10e-6 -0.2395842,0.0462 -0.3320312,0.13868 -0.1953131,0.22005 -0.2929693,0.59049 -0.2929688,1.11132 -5e-7,0.52084 0.097656,0.89128 0.2929688,1.11133 0.092447,0.0924 0.203124,0.13867 0.3320312,0.13867 0.128905,0 0.239582,-0.0462 0.3320312,-0.13867 0.1953109,-0.22005 0.2929671,-0.59049 0.2929688,-1.11133 -1.7e-6,-0.52083 -0.097658,-0.89127 -0.2929688,-1.11132 -0.092449,-0.0924 -0.2031262,-0.13867 -0.3320312,-0.13868"
           style="fill:url(#linearGradient4261);stroke:#f0ff35"
           id="path4221"
           inkscape:connector-curvature="0" />
        <path
           d="m -2.5625,947.09484 c -0.042969,10e-6 -0.080078,-0.015 -0.1113281,-0.0449 -0.029948,-0.0312 -0.044922,-0.0684 -0.044922,-0.11133 -2e-7,-0.043 0.014974,-0.0794 0.044922,-0.10937 0.03125,-0.0312 0.068359,-0.0469 0.1113281,-0.0469 l 0.9375,0 c 0.042968,10e-6 0.079426,0.0156 0.109375,0.0469 0.031249,0.0299 0.046874,0.0664 0.046875,0.10937 -1.4e-6,0.043 -0.015626,0.0801 -0.046875,0.11133 -0.029949,0.0299 -0.066407,0.0449 -0.109375,0.0449 l -0.9375,0"
           style="fill:url(#linearGradient4263);stroke:#f0ff35"
           id="path4223"
           inkscape:connector-curvature="0" />
        <path
           d="m 0.5625,947.71984 c 0.0429668,0 0.0794251,0.0156 0.109375,0.0469 0.031248,0.0299 0.046873,0.0664 0.046875,0.10937 -2.03e-6,0.043 -0.015627,0.0801 -0.046875,0.11133 -0.0299499,0.0299 -0.0664082,0.0449 -0.109375,0.0449 l -1.5625,0 c -0.042969,0 -0.080078,-0.015 -0.1113281,-0.0449 -0.029948,-0.0312 -0.044922,-0.0684 -0.044922,-0.11133 -2e-7,-0.043 0.014974,-0.0801 0.044922,-0.11132 l 1.33398435,-1.47657 c 0.12239418,-0.12239 0.18359203,-0.27018 0.18359375,-0.44336 -1.72e-6,-0.17317 -0.0611996,-0.32031 -0.18359375,-0.4414 -0.12109516,-0.1224 -0.26823043,-0.18359 -0.44140625,-0.1836 -0.173178,10e-6 -0.32096431,0.0612 -0.44335937,0.1836 -0.12109428,0.12109 -0.1816411,0.26823 -0.18164063,0.4414 -4.7e-7,0.043 -0.0156255,0.0801 -0.046875,0.11133 -0.0299483,0.0299 -0.0664066,0.0449 -0.109375,0.0449 -0.042969,10e-6 -0.080078,-0.015 -0.1113281,-0.0449 -0.029948,-0.0312 -0.044922,-0.0684 -0.044922,-0.11133 -2e-7,-0.25911 0.091146,-0.47981 0.2734375,-0.66211 0.18359314,-0.18359 0.40494708,-0.27538 0.6640625,-0.27539 0.25911323,10e-6 0.47981613,0.0918 0.66210938,0.27539 0.18359181,0.1823 0.27538859,0.403 0.27539062,0.66211 -2.03e-6,0.25912 -0.0917988,0.48047 -0.27539062,0.66407 l -1.08984375,1.21093 1.20898437,0"
           style="fill:url(#linearGradient4265);stroke:#f0ff35"
           id="path4225"
           inkscape:connector-curvature="0" />
        <path
           d="m 1.03125,946.46984 c -2e-7,-0.62499 0.1282549,-1.06965 0.3847656,-1.33398 0.1523431,-0.15234 0.3365877,-0.22851 0.5527344,-0.22852 0.2161445,10e-6 0.4003891,0.0762 0.5527344,0.22852 0.2565085,0.26433 0.3847636,0.70899 0.3847656,1.33398 -2e-6,0.62501 -0.1282571,1.06967 -0.3847656,1.33399 -0.1523453,0.15234 -0.3365899,0.22851 -0.5527344,0.22851 -0.2161467,0 -0.4003913,-0.0762 -0.5527344,-0.22851 -0.2565107,-0.26432 -0.3847658,-0.70898 -0.3847656,-1.33399 m 0.9375,-1.25 c -0.1289072,10e-6 -0.2395842,0.0462 -0.3320313,0.13868 -0.195313,0.22005 -0.2929692,0.59049 -0.2929687,1.11132 -5e-7,0.52084 0.097656,0.89128 0.2929687,1.11133 0.092447,0.0924 0.2031241,0.13867 0.3320313,0.13867 0.128905,0 0.239582,-0.0462 0.3320313,-0.13867 0.1953108,-0.22005 0.292967,-0.59049 0.2929687,-1.11133 -1.7e-6,-0.52083 -0.097658,-0.89127 -0.2929687,-1.11132 -0.092449,-0.0924 -0.2031263,-0.13867 -0.3320313,-0.13868"
           style="fill:url(#linearGradient4267);stroke:#f0ff35"
           id="path4227"
           inkscape:connector-curvature="0" />
      </g>
      <g
         transform="matrix(4.162011,0,0,4.162011,28.21447,-2933.1653)"
         style="font-size:4px;font-style:normal;font-variant:normal;font-weight:normal;font-stretch:normal;line-height:125%;letter-spacing:0px;word-spacing:0px;fill:url(#linearGradient4287);fill-opacity:1;stroke:#f0ff35;stroke-width:0.4565101;font-family:Comfortaa;-inkscape-font-specification:Comfortaa"
         id="flowRoot4003">
        <path
           d="m -2.3164063,947.57531 c -2.7e-6,0.043 -0.014977,0.0794 -0.044922,0.10938 -0.290367,0.23177 -0.6178407,0.34765 -0.9824219,0.34765 -0.4309909,0 -0.7994801,-0.15234 -1.1054687,-0.45703 -0.3046879,-0.30599 -0.4570315,-0.67448 -0.4570313,-1.10547 -2e-7,-0.43098 0.1523434,-0.79882 0.4570313,-1.10351 0.3059886,-0.30599 0.6744778,-0.45898 1.1054687,-0.45899 0.3723937,10e-6 0.7037736,0.11915 0.9941406,0.35743 0.029945,0.0312 0.044919,0.0684 0.044922,0.11132 -2.8e-6,0.043 -0.015628,0.0801 -0.046875,0.11133 -0.029951,0.0299 -0.066409,0.0449 -0.109375,0.0449 -0.042971,10e-6 -0.080081,-0.0156 -0.1113281,-0.0469 -0.2200544,-0.17708 -0.4772156,-0.26562 -0.7714844,-0.26563 -0.3450535,10e-6 -0.639975,0.1224 -0.8847656,0.36719 -0.2434902,0.24349 -0.3652349,0.53776 -0.3652344,0.88281 -5e-7,0.34506 0.1217442,0.63998 0.3652344,0.88477 0.2447906,0.24349 0.5397121,0.36523 0.8847656,0.36523 0.2695293,0 0.5078103,-0.0742 0.7148437,-0.22265 l 0,-0.71485 -0.6171875,0 c -0.042971,10e-6 -0.08008,-0.015 -0.1113281,-0.0449 -0.02995,-0.0312 -0.044924,-0.0684 -0.044922,-0.11133 -1.6e-6,-0.043 0.014972,-0.0794 0.044922,-0.10937 0.031248,-0.0312 0.068358,-0.0469 0.1113281,-0.0469 l 0.7753907,0 c 0.041664,10e-6 0.078122,0.015 0.109375,0.0449 0.029945,0.0312 0.044919,0.0684 0.044922,0.11132 l 0,0.94922"
           style="fill:url(#linearGradient4271);stroke:#f0ff35"
           id="path4230"
           inkscape:connector-curvature="0" />
        <path
           d="m 0.0625,947.87609 c -2.19e-6,0.043 -0.01562717,0.0801 -0.046875,0.11133 -0.02995003,0.0299 -0.06640832,0.0449 -0.109375,0.0449 -0.04297074,0 -0.08008008,-0.015 -0.11132813,-0.0449 -0.0299498,-0.0312 -0.0449238,-0.0684 -0.0449219,-0.11133 l 0,-0.12695 c -0.19531418,0.1888 -0.42968895,0.2832 -0.703125,0.2832 -0.27994877,0 -0.51953187,-0.0989 -0.71874997,-0.29687 -0.1979169,-0.19922 -0.2968752,-0.4388 -0.296875,-0.71875 l 0,-1.01563 c -2e-7,-0.043 0.014974,-0.0794 0.044922,-0.10937 0.03125,-0.0312 0.068359,-0.0469 0.1113281,-0.0469 0.042968,10e-6 0.079427,0.0156 0.109375,0.0469 0.031249,0.0299 0.046874,0.0664 0.046875,0.10937 l 0,1.01563 c -5e-7,0.19401 0.068359,0.36003 0.2050781,0.49805 0.13802,0.13672 0.3040355,0.20507 0.49804687,0.20507 0.19400905,0 0.35937347,-0.0684 0.49609375,-0.20507 0.13801903,-0.13802 0.20702937,-0.30404 0.20703125,-0.49805 l 0,-1.01563 c -1.88e-6,-0.043 0.0149721,-0.0794 0.0449219,-0.10937 0.0312481,-0.0312 0.0683574,-0.0469 0.11132813,-0.0469 0.04296668,10e-6 0.07942497,0.0156 0.109375,0.0469 0.03124783,0.0299 0.04687281,0.0664 0.046875,0.10937 l 0,1.875"
           style="fill:url(#linearGradient4273);stroke:#f0ff35"
           id="path4232"
           inkscape:connector-curvature="0" />
        <path
           d="m 2.2363281,946.78234 c -0.028648,-0.14973 -0.1002623,-0.2819 -0.2148437,-0.39648 -0.1523454,-0.15234 -0.33659,-0.22851 -0.5527344,-0.22852 -0.2161469,10e-6 -0.4003915,0.0762 -0.55273437,0.22852 -0.11458392,0.11458 -0.18619843,0.24675 -0.21484376,0.39648 l 1.53515623,0 m -0.1660156,0.71875 c 0.042967,0 0.079425,0.0156 0.109375,0.0469 0.031248,0.0299 0.046873,0.0664 0.046875,0.10937 -2e-6,0.043 -0.014976,0.0801 -0.044922,0.11133 -0.2018247,0.17578 -0.4394546,0.26367 -0.7128906,0.26367 -0.3020843,0 -0.55989652,-0.10677 -0.7734375,-0.32031 -0.21354193,-0.21354 -0.32031266,-0.47135 -0.3203125,-0.77344 -1.6e-7,-0.30208 0.10677057,-0.55989 0.3203125,-0.77343 0.21354098,-0.21354 0.4713532,-0.32031 0.7734375,-0.32032 0.3020818,10e-6 0.559894,0.10678 0.7734375,0.32032 0.2135394,0.21354 0.3203102,0.47135 0.3203125,0.77343 -2.3e-6,0.043 -0.015627,0.0801 -0.046875,0.11133 -0.02995,0.0299 -0.066409,0.0449 -0.109375,0.0449 l -1.70507813,0 c 0.0286453,0.14974 0.10025984,0.28191 0.21484376,0.39649 0.15234287,0.15234 0.33658747,0.22851 0.55273437,0.22851 0.1953111,0 0.3632796,-0.0618 0.5039062,-0.18554 0.028644,-0.0221 0.061196,-0.0332 0.097656,-0.0332"
           style="fill:url(#linearGradient4275);stroke:#f0ff35"
           id="path4234"
           inkscape:connector-curvature="0" />
        <path
           d="m 3.2617188,946.93859 c -0.1184901,-0.0443 -0.2011723,-0.0905 -0.2480469,-0.13867 -0.092448,-0.0911 -0.1386721,-0.20117 -0.1386719,-0.33008 -2e-7,-0.1289 0.048177,-0.24153 0.1445313,-0.33789 0.1874995,-0.1914 0.4322909,-0.2871 0.734375,-0.28711 0.3268215,10e-6 0.6067691,0.13087 0.8398437,0.39258 0.020831,0.0247 0.030597,0.0553 0.029297,0.0918 -1.9e-6,0.043 -0.015627,0.0801 -0.046875,0.11133 -0.02995,0.0299 -0.066408,0.0449 -0.109375,0.0449 -0.042971,0 -0.077476,-0.0137 -0.1035157,-0.041 -0.026043,-0.0273 -0.044923,-0.0469 -0.056641,-0.0586 -0.1523452,-0.15234 -0.3365898,-0.22851 -0.5527343,-0.22852 -0.2161467,10e-6 -0.3886726,0.0677 -0.5175782,0.20313 -0.031251,0.0378 -0.046875,0.0827 -0.046875,0.13476 0.00391,0.0612 0.035807,0.10287 0.095703,0.125 l 0.9609374,0.31836 c 0.118488,0.0443 0.2011702,0.0905 0.2480469,0.13868 0.092446,0.0911 0.13867,0.20117 0.1386719,0.33007 -1.9e-6,0.12891 -0.048179,0.24154 -0.1445313,0.33789 -0.1875015,0.19141 -0.432293,0.28711 -0.7343749,0.28711 -0.3281258,0 -0.6080734,-0.13086 -0.8398438,-0.39257 -0.019531,-0.0273 -0.029297,-0.058 -0.029297,-0.0918 -10e-8,-0.043 0.014974,-0.0794 0.044922,-0.10938 0.03125,-0.0312 0.068359,-0.0469 0.1113281,-0.0469 0.042968,0 0.077474,0.0137 0.1035157,0.041 0.026041,0.0273 0.044921,0.0469 0.056641,0.0586 0.1523431,0.15234 0.3365877,0.22851 0.5527344,0.22851 0.2161445,0 0.3886704,-0.0677 0.5175781,-0.20312 0.031248,-0.0378 0.046873,-0.0827 0.046875,-0.13477 -0.00391,-0.0612 -0.035809,-0.10286 -0.095703,-0.125 l -0.9609374,-0.31836"
           style="fill:url(#linearGradient4277);stroke:#f0ff35"
           id="path4236"
           inkscape:connector-curvature="0" />
        <path
           d="m 5.3320312,946.93859 c -0.11849,-0.0443 -0.2011722,-0.0905 -0.2480468,-0.13867 -0.092448,-0.0911 -0.1386721,-0.20117 -0.1386719,-0.33008 -2e-7,-0.1289 0.048177,-0.24153 0.1445312,-0.33789 0.1874996,-0.1914 0.432291,-0.2871 0.734375,-0.28711 0.3268216,10e-6 0.6067692,0.13087 0.8398438,0.39258 0.020831,0.0247 0.030597,0.0553 0.029297,0.0918 -1.9e-6,0.043 -0.015627,0.0801 -0.046875,0.11133 -0.02995,0.0299 -0.066408,0.0449 -0.109375,0.0449 -0.042971,0 -0.077476,-0.0137 -0.1035157,-0.041 -0.026043,-0.0273 -0.044923,-0.0469 -0.056641,-0.0586 -0.1523452,-0.15234 -0.3365898,-0.22851 -0.5527344,-0.22852 -0.2161466,10e-6 -0.3886725,0.0677 -0.5175781,0.20313 -0.03125,0.0378 -0.046875,0.0827 -0.046875,0.13476 0.00391,0.0612 0.035807,0.10287 0.095703,0.125 l 0.9609375,0.31836 c 0.118488,0.0443 0.2011702,0.0905 0.2480469,0.13868 0.092446,0.0911 0.13867,0.20117 0.1386719,0.33007 -1.9e-6,0.12891 -0.048179,0.24154 -0.1445313,0.33789 -0.1875015,0.19141 -0.432293,0.28711 -0.734375,0.28711 -0.3281257,0 -0.6080733,-0.13086 -0.8398437,-0.39257 -0.019531,-0.0273 -0.029297,-0.058 -0.029297,-0.0918 -1e-7,-0.043 0.014974,-0.0794 0.044922,-0.10938 0.03125,-0.0312 0.068359,-0.0469 0.1113281,-0.0469 0.042968,0 0.077474,0.0137 0.1035156,0.041 0.026041,0.0273 0.044922,0.0469 0.056641,0.0586 0.1523431,0.15234 0.3365877,0.22851 0.5527343,0.22851 0.2161446,0 0.3886705,-0.0677 0.5175782,-0.20312 0.031248,-0.0378 0.046873,-0.0827 0.046875,-0.13477 -0.00391,-0.0612 -0.035809,-0.10286 -0.095703,-0.125 l -0.9609375,-0.31836"
           style="fill:url(#linearGradient4279);stroke:#f0ff35"
           id="path4238"
           inkscape:connector-curvature="0" />
        <path
           d="m 8.34375,945.21984 c -0.042969,10e-6 -0.080078,-0.015 -0.1113281,-0.0449 -0.029948,-0.0312 -0.044922,-0.0684 -0.044922,-0.11133 -2e-7,-0.043 0.014974,-0.0794 0.044922,-0.10937 0.03125,-0.0312 0.068359,-0.0469 0.1113281,-0.0469 l 2.03125,0 c 0.04297,10e-6 0.07943,0.0156 0.109375,0.0469 0.03125,0.0299 0.04687,0.0664 0.04687,0.10937 -3e-6,0.043 -0.01563,0.0801 -0.04687,0.11133 -0.02995,0.0299 -0.06641,0.0449 -0.109375,0.0449 l -0.859375,0 0,2.65625 c -1.5e-6,0.043 -0.015626,0.0801 -0.046875,0.11133 -0.029949,0.0299 -0.066408,0.0449 -0.109375,0.0449 -0.04297,0 -0.080079,-0.015 -0.1113281,-0.0449 -0.029949,-0.0312 -0.044923,-0.0684 -0.044922,-0.11133 l 0,-2.65625 -0.859375,0"
           style="fill:url(#linearGradient4281);stroke:#f0ff35"
           id="path4240"
           inkscape:connector-curvature="0" />
        <path
           d="m 10.84375,945.06359 c 0,-0.043 0.01497,-0.0794 0.04492,-0.10937 0.03125,-0.0312 0.06836,-0.0469 0.111328,-0.0469 0.04297,10e-6 0.07943,0.0156 0.109375,0.0469 0.03125,0.0299 0.04687,0.0664 0.04687,0.10937 l 0,1.06446 c 0.195312,-0.1888 0.429687,-0.2832 0.703125,-0.28321 0.279946,10e-6 0.518879,0.0996 0.716797,0.29883 0.199217,0.19792 0.298826,0.43685 0.298828,0.7168 l 0,1.01562 c -2e-6,0.043 -0.01563,0.0801 -0.04687,0.11133 -0.02995,0.0299 -0.06641,0.0449 -0.109375,0.0449 -0.04297,0 -0.08008,-0.015 -0.111328,-0.0449 -0.02995,-0.0312 -0.04492,-0.0684 -0.04492,-0.11133 l 0,-1.01562 c -2e-6,-0.19401 -0.06901,-0.35937 -0.207031,-0.49609 -0.136721,-0.13802 -0.302085,-0.20703 -0.496094,-0.20704 -0.194011,10e-6 -0.360027,0.069 -0.498047,0.20704 -0.136719,0.13672 -0.205078,0.30208 -0.205078,0.49609 l 0,1.01562 c 0,0.043 -0.01563,0.0801 -0.04687,0.11133 -0.02995,0.0299 -0.06641,0.0449 -0.109375,0.0449 -0.04297,0 -0.08008,-0.015 -0.111328,-0.0449 -0.02995,-0.0312 -0.04492,-0.0684 -0.04492,-0.11133 l 0,-2.8125"
           style="fill:url(#linearGradient4283);stroke:#f0ff35"
           id="path4242"
           inkscape:connector-curvature="0" />
        <path
           d="m 15.048828,946.78234 c -0.02865,-0.14973 -0.100262,-0.2819 -0.214844,-0.39648 -0.152345,-0.15234 -0.33659,-0.22851 -0.552734,-0.22852 -0.216147,10e-6 -0.400391,0.0762 -0.552734,0.22852 -0.114584,0.11458 -0.186199,0.24675 -0.214844,0.39648 l 1.535156,0 m -0.166015,0.71875 c 0.04297,0 0.07942,0.0156 0.109375,0.0469 0.03125,0.0299 0.04687,0.0664 0.04687,0.10937 -3e-6,0.043 -0.01498,0.0801 -0.04492,0.11133 -0.201825,0.17578 -0.439455,0.26367 -0.712891,0.26367 -0.302084,0 -0.559897,-0.10677 -0.773437,-0.32031 -0.213542,-0.21354 -0.320313,-0.47135 -0.320313,-0.77344 0,-0.30208 0.106771,-0.55989 0.320313,-0.77343 0.21354,-0.21354 0.471353,-0.32031 0.773437,-0.32032 0.302082,10e-6 0.559894,0.10678 0.773438,0.32032 0.213539,0.21354 0.32031,0.47135 0.320312,0.77343 -2e-6,0.043 -0.01563,0.0801 -0.04687,0.11133 -0.02995,0.0299 -0.06641,0.0449 -0.109375,0.0449 l -1.705078,0 c 0.02865,0.14974 0.10026,0.28191 0.214844,0.39649 0.152343,0.15234 0.336587,0.22851 0.552734,0.22851 0.195311,0 0.36328,-0.0618 0.503906,-0.18554 0.02864,-0.0221 0.0612,-0.0332 0.09766,-0.0332"
           style="fill:url(#linearGradient4285);stroke:#f0ff35"
           id="path4244"
           inkscape:connector-curvature="0" />
      </g>
      <g
         transform="matrix(5.060342,0,0,5.060342,33.71202,-3765.045)"
         style="font-size:4px;font-style:normal;font-variant:normal;font-weight:normal;font-stretch:normal;line-height:125%;letter-spacing:0px;word-spacing:0px;fill:url(#linearGradient4303);fill-opacity:1;stroke:#f0ff35;stroke-width:0.3754687;font-family:Comfortaa;-inkscape-font-specification:Comfortaa"
         id="flowRoot4011">
        <path
           d="m -4.59375,947.87609 c -5e-7,0.043 -0.015625,0.0801 -0.046875,0.11133 -0.029948,0.0299 -0.066407,0.0449 -0.109375,0.0449 -0.042969,0 -0.080078,-0.015 -0.1113281,-0.0449 -0.029948,-0.0312 -0.044922,-0.0684 -0.044922,-0.11133 l 0,-2.8125 c -2e-7,-0.043 0.014974,-0.0794 0.044922,-0.10937 0.03125,-0.0312 0.068359,-0.0469 0.1113281,-0.0469 0.046875,10e-6 0.087239,0.0189 0.1210938,0.0566 l 1.9101562,2.45704 0,-2.35743 c -2.3e-6,-0.043 0.014972,-0.0794 0.044922,-0.10937 0.031248,-0.0312 0.068357,-0.0469 0.1113281,-0.0469 0.042966,1e-5 0.079425,0.0156 0.109375,0.0469 0.031247,0.0299 0.046872,0.0664 0.046875,0.10937 l 0,2.8125 c -2.7e-6,0.043 -0.015628,0.0801 -0.046875,0.11133 -0.02995,0.0299 -0.066409,0.0449 -0.109375,0.0449 -0.045575,0 -0.084638,-0.0169 -0.1171875,-0.0508 l -1.9140625,-2.46093 0,2.35546"
           style="fill:url(#linearGradient4289);stroke:#f0ff35"
           id="path4247"
           inkscape:connector-curvature="0" />
        <path
           d="m -2.09375,945.06359 c -2e-7,-0.043 0.014974,-0.0794 0.044922,-0.10937 0.03125,-0.0312 0.068359,-0.0469 0.1113281,-0.0469 0.042968,10e-6 0.079427,0.0156 0.109375,0.0469 0.031249,0.0299 0.046874,0.0664 0.046875,0.10937 l 0,1.875 c -5e-7,0.21615 0.076171,0.4004 0.2285156,0.55274 0.1523429,0.15234 0.3365875,0.22851 0.5527344,0.22851 0.21614437,0 0.40038897,-0.0762 0.55273437,-0.22851 0.1523418,-0.15234 0.2285136,-0.33659 0.22851563,-0.55274 l 0,-1.875 c -2.03e-6,-0.043 0.0149719,-0.0794 0.0449219,-0.10937 0.0312479,-0.0312 0.0683572,-0.0469 0.11132812,-0.0469 0.04296652,10e-6 0.07942482,0.0156 0.109375,0.0469 0.03124767,0.0299 0.04687266,0.0664 0.046875,0.10937 l 0,1.875 c -2.34e-6,0.30209 -0.10677307,0.5599 -0.3203125,0.77344 -0.21354348,0.21354 -0.47135572,0.32031 -0.7734375,0.32031 -0.30208432,0 -0.55989652,-0.10677 -0.77343752,-0.32031 -0.2135419,-0.21354 -0.3203127,-0.47135 -0.3203125,-0.77344 l 0,-1.875"
           style="fill:url(#linearGradient4291);stroke:#f0ff35"
           id="path4249"
           inkscape:connector-curvature="0" />
        <path
           d="M 1.8242187,947.93664 0.71875,945.7257 l 0,2.15039 c -4.7e-7,0.043 -0.0156255,0.0801 -0.046875,0.11133 -0.0299483,0.0299 -0.0664066,0.0449 -0.109375,0.0449 -0.042969,0 -0.0800784,-0.015 -0.11132812,-0.0449 -0.0299481,-0.0312 -0.044922,-0.0684 -0.0449219,-0.11133 l 0,-2.8125 c -1.6e-7,-0.043 0.0149738,-0.0794 0.0449219,-0.10937 0.0312498,-0.0312 0.0683591,-0.0469 0.11132812,-0.0469 0.0624996,10e-6 0.10872354,0.0274 0.13867187,0.082 l 1.26757813,2.5371 1.2675781,-2.5371 c 0.029945,-0.0547 0.076169,-0.082 0.1386719,-0.082 0.042966,10e-6 0.079424,0.0156 0.109375,0.0469 0.031247,0.0299 0.046872,0.0664 0.046875,0.10937 l 0,2.8125 c -3.3e-6,0.043 -0.015628,0.0801 -0.046875,0.11133 -0.029951,0.0299 -0.066409,0.0449 -0.109375,0.0449 -0.042972,0 -0.080081,-0.015 -0.1113281,-0.0449 -0.029951,-0.0312 -0.044925,-0.0684 -0.044922,-0.11133 l 0,-2.15039 -1.1152344,2.23047 c -0.027346,0.0508 -0.072267,0.0762 -0.1347656,0.0762 -0.065106,0 -0.1132829,-0.0319 -0.1445313,-0.0957"
           style="fill:url(#linearGradient4293);stroke:#f0ff35"
           id="path4251"
           inkscape:connector-curvature="0" />
        <path
           d="m 4.15625,945.21984 0,0.9375 0.46875,0 c 0.1289052,10e-6 0.2389311,-0.0456 0.3300781,-0.13671 0.092447,-0.0924 0.1386705,-0.20313 0.1386719,-0.33204 -1.4e-6,-0.1289 -0.046225,-0.23893 -0.1386719,-0.33007 -0.091147,-0.0924 -0.2011729,-0.13867 -0.3300781,-0.13868 l -0.46875,0 m 0,1.25 0,1.25 0.625,0 c 0.1731758,0 0.3203111,-0.0605 0.4414062,-0.18164 0.1223942,-0.12239 0.1835921,-0.27018 0.1835938,-0.44336 -1.7e-6,-0.17317 -0.0612,-0.32031 -0.1835938,-0.4414 -0.1210951,-0.1224 -0.2682304,-0.18359 -0.4414062,-0.1836 l -0.625,0 M 4,944.90734 l 0.625,0 c 0.2161447,10e-6 0.4003893,0.0762 0.5527344,0.22852 0.1523421,0.15235 0.2285139,0.33659 0.2285156,0.55273 -1.7e-6,0.21615 -0.076174,0.4004 -0.2285156,0.55274 0.096353,0.0456 0.1855452,0.10872 0.2675781,0.18945 0.1822897,0.1836 0.2734355,0.40495 0.2734375,0.66406 -2e-6,0.25912 -0.091799,0.48047 -0.2753906,0.66407 -0.1822933,0.18229 -0.4029962,0.27343 -0.6621094,0.27343 l -0.78125,0 c -0.042969,0 -0.080078,-0.015 -0.1113281,-0.0449 -0.029948,-0.0312 -0.044922,-0.0684 -0.044922,-0.11133 l 0,-2.8125 c -2e-7,-0.043 0.014974,-0.0794 0.044922,-0.10937 0.03125,-0.0312 0.068359,-0.0469 0.1113281,-0.0469"
           style="fill:url(#linearGradient4295);stroke:#f0ff35"
           id="path4253"
           inkscape:connector-curvature="0" />
        <path
           d="m 6.1875,944.90734 1.875,0 c 0.042967,10e-6 0.079425,0.0156 0.109375,0.0469 0.031248,0.0299 0.046873,0.0664 0.046875,0.10937 -2.3e-6,0.043 -0.015627,0.0801 -0.046875,0.11133 -0.02995,0.0299 -0.066408,0.0449 -0.109375,0.0449 l -1.71875,0 0,1.09375 1.25,0 c 0.042967,10e-6 0.079425,0.0156 0.109375,0.0469 0.031248,0.0299 0.046873,0.0664 0.046875,0.10937 -1.9e-6,0.043 -0.015627,0.0801 -0.046875,0.11133 -0.02995,0.0299 -0.066408,0.0449 -0.109375,0.0449 l -1.25,0 0,1.09375 1.71875,0 c 0.042967,0 0.079425,0.0156 0.109375,0.0469 0.031248,0.0299 0.046873,0.0664 0.046875,0.10937 -2.3e-6,0.043 -0.015627,0.0801 -0.046875,0.11133 -0.02995,0.0299 -0.066408,0.0449 -0.109375,0.0449 l -1.875,0 c -0.042969,0 -0.080078,-0.015 -0.1113281,-0.0449 -0.029948,-0.0312 -0.044922,-0.0684 -0.044922,-0.11133 l 0,-2.8125 c -2e-7,-0.043 0.014974,-0.0794 0.044922,-0.10937 0.03125,-0.0312 0.068359,-0.0469 0.1113281,-0.0469"
           style="fill:url(#linearGradient4297);stroke:#f0ff35"
           id="path4255"
           inkscape:connector-curvature="0" />
        <path
           d="m 8.84375,945.21984 0,1.25 0.625,0 c 0.1731758,10e-6 0.3203111,-0.0605 0.4414063,-0.18164 0.1223937,-0.12239 0.1835917,-0.27018 0.1835937,-0.44336 -2e-6,-0.17317 -0.0612,-0.32031 -0.1835937,-0.4414 -0.1210952,-0.1224 -0.2682305,-0.18359 -0.4414063,-0.1836 l -0.625,0 m -0.15625,-0.3125 0.78125,0 c 0.2591132,10e-6 0.4798161,0.0918 0.662109,0.27539 0.183592,0.1823 0.275389,0.403 0.275391,0.66211 -2e-6,0.25912 -0.09115,0.47982 -0.273437,0.66211 -0.08464,0.0846 -0.1764344,0.14909 -0.2753911,0.19336 l 0.6796871,1.08985 c 0.01693,0.0247 0.02539,0.0534 0.02539,0.0859 -2e-6,0.043 -0.01563,0.0801 -0.04687,0.11133 -0.02995,0.0299 -0.06641,0.0449 -0.109375,0.0449 -0.05599,0 -0.101564,-0.0267 -0.136719,-0.0801 l -0.7324216,-1.17188 c -0.022137,10e-4 -0.044923,0.002 -0.068359,0.002 l -0.625,0 0,1.09375 c -5e-7,0.043 -0.015626,0.0801 -0.046875,0.11133 -0.029948,0.0299 -0.066407,0.0449 -0.109375,0.0449 -0.042969,0 -0.080078,-0.015 -0.1113281,-0.0449 -0.029948,-0.0312 -0.044922,-0.0684 -0.044922,-0.11133 l 0,-2.8125 c -2e-7,-0.043 0.014974,-0.0794 0.044922,-0.10937 0.03125,-0.0312 0.068359,-0.0469 0.1113281,-0.0469"
           style="fill:url(#linearGradient4299);stroke:#f0ff35"
           id="path4257"
           inkscape:connector-curvature="0" />
        <path
           d="m 11.34375,947.79797 c -10e-7,0.0651 -0.02279,0.12044 -0.06836,0.16601 -0.04557,0.0456 -0.100912,0.0684 -0.166016,0.0684 -0.0651,0 -0.120443,-0.0228 -0.166016,-0.0684 -0.04557,-0.0456 -0.06836,-0.10091 -0.06836,-0.16601 0,-0.0651 0.02279,-0.12044 0.06836,-0.16602 0.04557,-0.0456 0.100912,-0.0684 0.166016,-0.0684 0.0651,0 0.120442,0.0228 0.166016,0.0684 0.04557,0.0456 0.06836,0.10092 0.06836,0.16602 m -0.390625,-2.73438 c 0,-0.043 0.01497,-0.0794 0.04492,-0.10937 0.03125,-0.0312 0.06836,-0.0469 0.111328,-0.0469 0.04297,10e-6 0.07943,0.0156 0.109375,0.0469 0.03125,0.0299 0.04687,0.0664 0.04687,0.10937 l 0,2.18946 c -10e-7,0.0417 -0.01497,0.0775 -0.04492,0.10742 -0.03125,0.0312 -0.06836,0.0469 -0.111328,0.0469 -0.04297,0 -0.07943,-0.0156 -0.109375,-0.0469 -0.03125,-0.0299 -0.04687,-0.0658 -0.04687,-0.10742 l 0,-2.18946"
           style="fill:url(#linearGradient4301);stroke:#f0ff35"
           id="path4259"
           inkscape:connector-curvature="0" />
      </g>
    </g>
    <g
       id="g3979"
       style="opacity:0.94099998">
      <g
         transform="matrix(10.240087,0,0,10.240087,60.240083,-8712.3377)"
         style="font-size:4px;font-style:normal;font-variant:normal;font-weight:normal;font-stretch:normal;line-height:125%;letter-spacing:0px;word-spacing:0px;fill:url(#linearGradient4144);fill-opacity:1;stroke:none;font-family:Comfortaa;-inkscape-font-specification:Comfortaa"
         id="flowRoot3837">
        <path
           d="m -4.90625,946.46984 c -2e-7,-0.62499 0.1282549,-1.06965 0.3847656,-1.33398 0.1523431,-0.15234 0.3365877,-0.22851 0.5527344,-0.22852 0.2161445,10e-6 0.4003891,0.0762 0.5527344,0.22852 0.2565085,0.26433 0.3847636,0.70899 0.3847656,1.33398 -2e-6,0.62501 -0.1282571,1.06967 -0.3847656,1.33399 -0.1523453,0.15234 -0.3365899,0.22851 -0.5527344,0.22851 -0.2161467,0 -0.4003913,-0.0762 -0.5527344,-0.22851 -0.2565107,-0.26432 -0.3847658,-0.70898 -0.3847656,-1.33399 m 0.9375,-1.25 c -0.1289072,10e-6 -0.2395842,0.0462 -0.3320312,0.13868 -0.1953131,0.22005 -0.2929693,0.59049 -0.2929688,1.11132 -5e-7,0.52084 0.097656,0.89128 0.2929688,1.11133 0.092447,0.0924 0.203124,0.13867 0.3320312,0.13867 0.128905,0 0.239582,-0.0462 0.3320312,-0.13867 0.1953109,-0.22005 0.2929671,-0.59049 0.2929688,-1.11133 -1.7e-6,-0.52083 -0.097658,-0.89127 -0.2929688,-1.11132 -0.092449,-0.0924 -0.2031262,-0.13867 -0.3320312,-0.13868"
           style="fill:url(#linearGradient4142)"
           id="path4174" />
        <path
           d="m -2.5625,947.09484 c -0.042969,10e-6 -0.080078,-0.015 -0.1113281,-0.0449 -0.029948,-0.0312 -0.044922,-0.0684 -0.044922,-0.11133 -2e-7,-0.043 0.014974,-0.0794 0.044922,-0.10937 0.03125,-0.0312 0.068359,-0.0469 0.1113281,-0.0469 l 0.9375,0 c 0.042968,10e-6 0.079426,0.0156 0.109375,0.0469 0.031249,0.0299 0.046874,0.0664 0.046875,0.10937 -1.4e-6,0.043 -0.015626,0.0801 -0.046875,0.11133 -0.029949,0.0299 -0.066407,0.0449 -0.109375,0.0449 l -0.9375,0"
           style="fill:url(#linearGradient4142)"
           id="path4176" />
        <path
           d="m 0.5625,947.71984 c 0.0429668,0 0.0794251,0.0156 0.109375,0.0469 0.031248,0.0299 0.046873,0.0664 0.046875,0.10937 -2.03e-6,0.043 -0.015627,0.0801 -0.046875,0.11133 -0.0299499,0.0299 -0.0664082,0.0449 -0.109375,0.0449 l -1.5625,0 c -0.042969,0 -0.080078,-0.015 -0.1113281,-0.0449 -0.029948,-0.0312 -0.044922,-0.0684 -0.044922,-0.11133 -2e-7,-0.043 0.014974,-0.0801 0.044922,-0.11132 l 1.33398435,-1.47657 c 0.12239418,-0.12239 0.18359203,-0.27018 0.18359375,-0.44336 -1.72e-6,-0.17317 -0.0611996,-0.32031 -0.18359375,-0.4414 -0.12109516,-0.1224 -0.26823043,-0.18359 -0.44140625,-0.1836 -0.173178,10e-6 -0.32096431,0.0612 -0.44335937,0.1836 -0.12109428,0.12109 -0.1816411,0.26823 -0.18164063,0.4414 -4.7e-7,0.043 -0.0156255,0.0801 -0.046875,0.11133 -0.0299483,0.0299 -0.0664066,0.0449 -0.109375,0.0449 -0.042969,10e-6 -0.080078,-0.015 -0.1113281,-0.0449 -0.029948,-0.0312 -0.044922,-0.0684 -0.044922,-0.11133 -2e-7,-0.25911 0.091146,-0.47981 0.2734375,-0.66211 0.18359314,-0.18359 0.40494708,-0.27538 0.6640625,-0.27539 0.25911323,10e-6 0.47981613,0.0918 0.66210938,0.27539 0.18359181,0.1823 0.27538859,0.403 0.27539062,0.66211 -2.03e-6,0.25912 -0.0917988,0.48047 -0.27539062,0.66407 l -1.08984375,1.21093 1.20898437,0"
           style="fill:url(#linearGradient4142)"
           id="path4178" />
        <path
           d="m 1.03125,946.46984 c -2e-7,-0.62499 0.1282549,-1.06965 0.3847656,-1.33398 0.1523431,-0.15234 0.3365877,-0.22851 0.5527344,-0.22852 0.2161445,10e-6 0.4003891,0.0762 0.5527344,0.22852 0.2565085,0.26433 0.3847636,0.70899 0.3847656,1.33398 -2e-6,0.62501 -0.1282571,1.06967 -0.3847656,1.33399 -0.1523453,0.15234 -0.3365899,0.22851 -0.5527344,0.22851 -0.2161467,0 -0.4003913,-0.0762 -0.5527344,-0.22851 -0.2565107,-0.26432 -0.3847658,-0.70898 -0.3847656,-1.33399 m 0.9375,-1.25 c -0.1289072,10e-6 -0.2395842,0.0462 -0.3320313,0.13868 -0.195313,0.22005 -0.2929692,0.59049 -0.2929687,1.11132 -5e-7,0.52084 0.097656,0.89128 0.2929687,1.11133 0.092447,0.0924 0.2031241,0.13867 0.3320313,0.13867 0.128905,0 0.239582,-0.0462 0.3320313,-0.13867 0.1953108,-0.22005 0.292967,-0.59049 0.2929687,-1.11133 -1.7e-6,-0.52083 -0.097658,-0.89127 -0.2929687,-1.11132 -0.092449,-0.0924 -0.2031263,-0.13867 -0.3320313,-0.13868"
           style="fill:url(#linearGradient4142)"
           id="path4180" />
      </g>
      <g
         transform="matrix(4.162011,0,0,4.162011,28.21447,-2933.1653)"
         style="font-size:4px;font-style:normal;font-variant:normal;font-weight:normal;font-stretch:normal;line-height:125%;letter-spacing:0px;word-spacing:0px;fill:url(#linearGradient4148);fill-opacity:1;stroke:none;font-family:Comfortaa;-inkscape-font-specification:Comfortaa"
         id="flowRoot3845">
        <path
           d="m -2.3164063,947.57531 c -2.7e-6,0.043 -0.014977,0.0794 -0.044922,0.10938 -0.290367,0.23177 -0.6178407,0.34765 -0.9824219,0.34765 -0.4309909,0 -0.7994801,-0.15234 -1.1054687,-0.45703 -0.3046879,-0.30599 -0.4570315,-0.67448 -0.4570313,-1.10547 -2e-7,-0.43098 0.1523434,-0.79882 0.4570313,-1.10351 0.3059886,-0.30599 0.6744778,-0.45898 1.1054687,-0.45899 0.3723937,10e-6 0.7037736,0.11915 0.9941406,0.35743 0.029945,0.0312 0.044919,0.0684 0.044922,0.11132 -2.8e-6,0.043 -0.015628,0.0801 -0.046875,0.11133 -0.029951,0.0299 -0.066409,0.0449 -0.109375,0.0449 -0.042971,10e-6 -0.080081,-0.0156 -0.1113281,-0.0469 -0.2200544,-0.17708 -0.4772156,-0.26562 -0.7714844,-0.26563 -0.3450535,10e-6 -0.639975,0.1224 -0.8847656,0.36719 -0.2434902,0.24349 -0.3652349,0.53776 -0.3652344,0.88281 -5e-7,0.34506 0.1217442,0.63998 0.3652344,0.88477 0.2447906,0.24349 0.5397121,0.36523 0.8847656,0.36523 0.2695293,0 0.5078103,-0.0742 0.7148437,-0.22265 l 0,-0.71485 -0.6171875,0 c -0.042971,10e-6 -0.08008,-0.015 -0.1113281,-0.0449 -0.02995,-0.0312 -0.044924,-0.0684 -0.044922,-0.11133 -1.6e-6,-0.043 0.014972,-0.0794 0.044922,-0.10937 0.031248,-0.0312 0.068358,-0.0469 0.1113281,-0.0469 l 0.7753907,0 c 0.041664,10e-6 0.078122,0.015 0.109375,0.0449 0.029945,0.0312 0.044919,0.0684 0.044922,0.11132 l 0,0.94922"
           style="fill:url(#linearGradient4146)"
           id="path4183" />
        <path
           d="m 0.0625,947.87609 c -2.19e-6,0.043 -0.01562717,0.0801 -0.046875,0.11133 -0.02995003,0.0299 -0.06640832,0.0449 -0.109375,0.0449 -0.04297074,0 -0.08008008,-0.015 -0.11132813,-0.0449 -0.0299498,-0.0312 -0.0449238,-0.0684 -0.0449219,-0.11133 l 0,-0.12695 c -0.19531418,0.1888 -0.42968895,0.2832 -0.703125,0.2832 -0.2799488,0 -0.5195319,-0.0989 -0.71875,-0.29687 -0.1979169,-0.19922 -0.2968752,-0.4388 -0.296875,-0.71875 l 0,-1.01563 c -2e-7,-0.043 0.014974,-0.0794 0.044922,-0.10937 0.03125,-0.0312 0.068359,-0.0469 0.1113281,-0.0469 0.042968,10e-6 0.079427,0.0156 0.109375,0.0469 0.031249,0.0299 0.046874,0.0664 0.046875,0.10937 l 0,1.01563 c -5e-7,0.19401 0.068359,0.36003 0.2050781,0.49805 0.13802,0.13672 0.3040355,0.20507 0.4980469,0.20507 0.19400905,0 0.35937347,-0.0684 0.49609375,-0.20507 0.13801903,-0.13802 0.20702937,-0.30404 0.20703125,-0.49805 l 0,-1.01563 c -1.88e-6,-0.043 0.0149721,-0.0794 0.0449219,-0.10937 0.0312481,-0.0312 0.0683574,-0.0469 0.11132813,-0.0469 0.04296668,10e-6 0.07942497,0.0156 0.109375,0.0469 0.03124783,0.0299 0.04687281,0.0664 0.046875,0.10937 l 0,1.875"
           style="fill:url(#linearGradient4146)"
           id="path4185" />
        <path
           d="m 2.2363281,946.78234 c -0.028648,-0.14973 -0.1002623,-0.2819 -0.2148437,-0.39648 -0.1523454,-0.15234 -0.33659,-0.22851 -0.5527344,-0.22852 -0.2161469,10e-6 -0.4003915,0.0762 -0.55273437,0.22852 -0.11458392,0.11458 -0.18619843,0.24675 -0.21484376,0.39648 l 1.53515623,0 m -0.1660156,0.71875 c 0.042967,0 0.079425,0.0156 0.109375,0.0469 0.031248,0.0299 0.046873,0.0664 0.046875,0.10937 -2e-6,0.043 -0.014976,0.0801 -0.044922,0.11133 -0.2018247,0.17578 -0.4394546,0.26367 -0.7128906,0.26367 -0.3020843,0 -0.55989652,-0.10677 -0.7734375,-0.32031 -0.21354193,-0.21354 -0.32031266,-0.47135 -0.3203125,-0.77344 -1.6e-7,-0.30208 0.10677057,-0.55989 0.3203125,-0.77343 0.21354098,-0.21354 0.4713532,-0.32031 0.7734375,-0.32032 0.3020818,10e-6 0.559894,0.10678 0.7734375,0.32032 0.2135394,0.21354 0.3203102,0.47135 0.3203125,0.77343 -2.3e-6,0.043 -0.015627,0.0801 -0.046875,0.11133 -0.02995,0.0299 -0.066409,0.0449 -0.109375,0.0449 l -1.70507813,0 c 0.0286453,0.14974 0.10025984,0.28191 0.21484376,0.39649 0.15234287,0.15234 0.33658747,0.22851 0.55273437,0.22851 0.1953111,0 0.3632796,-0.0618 0.5039062,-0.18554 0.028644,-0.0221 0.061196,-0.0332 0.097656,-0.0332"
           style="fill:url(#linearGradient4146)"
           id="path4187" />
        <path
           d="m 3.2617188,946.93859 c -0.1184901,-0.0443 -0.2011723,-0.0905 -0.2480469,-0.13867 -0.092448,-0.0911 -0.1386721,-0.20117 -0.1386719,-0.33008 -2e-7,-0.1289 0.048177,-0.24153 0.1445313,-0.33789 0.1874995,-0.1914 0.4322909,-0.2871 0.734375,-0.28711 0.3268215,10e-6 0.6067691,0.13087 0.8398437,0.39258 0.020831,0.0247 0.030597,0.0553 0.029297,0.0918 -1.9e-6,0.043 -0.015627,0.0801 -0.046875,0.11133 -0.02995,0.0299 -0.066408,0.0449 -0.109375,0.0449 -0.042971,0 -0.077476,-0.0137 -0.1035157,-0.041 -0.026043,-0.0273 -0.044923,-0.0469 -0.056641,-0.0586 -0.1523452,-0.15234 -0.3365898,-0.22851 -0.5527343,-0.22852 -0.2161467,10e-6 -0.3886726,0.0677 -0.5175782,0.20313 -0.031251,0.0378 -0.046875,0.0827 -0.046875,0.13476 0.00391,0.0612 0.035807,0.10287 0.095703,0.125 l 0.9609374,0.31836 c 0.118488,0.0443 0.2011702,0.0905 0.2480469,0.13868 0.092446,0.0911 0.13867,0.20117 0.1386719,0.33007 -1.9e-6,0.12891 -0.048179,0.24154 -0.1445313,0.33789 -0.1875015,0.19141 -0.432293,0.28711 -0.7343749,0.28711 -0.3281258,0 -0.6080734,-0.13086 -0.8398438,-0.39257 -0.019531,-0.0273 -0.029297,-0.058 -0.029297,-0.0918 -1e-7,-0.043 0.014974,-0.0794 0.044922,-0.10938 0.03125,-0.0312 0.068359,-0.0469 0.1113281,-0.0469 0.042968,0 0.077474,0.0137 0.1035157,0.041 0.026041,0.0273 0.044921,0.0469 0.056641,0.0586 0.1523431,0.15234 0.3365877,0.22851 0.5527344,0.22851 0.2161445,0 0.3886704,-0.0677 0.5175781,-0.20312 0.031248,-0.0378 0.046873,-0.0827 0.046875,-0.13477 -0.00391,-0.0612 -0.035809,-0.10286 -0.095703,-0.125 l -0.9609374,-0.31836"
           style="fill:url(#linearGradient4146)"
           id="path4189" />
        <path
           d="m 5.3320312,946.93859 c -0.11849,-0.0443 -0.2011722,-0.0905 -0.2480468,-0.13867 -0.092448,-0.0911 -0.1386721,-0.20117 -0.1386719,-0.33008 -2e-7,-0.1289 0.048177,-0.24153 0.1445312,-0.33789 0.1874996,-0.1914 0.432291,-0.2871 0.734375,-0.28711 0.3268216,10e-6 0.6067692,0.13087 0.8398438,0.39258 0.020831,0.0247 0.030597,0.0553 0.029297,0.0918 -1.9e-6,0.043 -0.015627,0.0801 -0.046875,0.11133 -0.02995,0.0299 -0.066408,0.0449 -0.109375,0.0449 -0.042971,0 -0.077476,-0.0137 -0.1035157,-0.041 -0.026043,-0.0273 -0.044923,-0.0469 -0.056641,-0.0586 -0.1523452,-0.15234 -0.3365898,-0.22851 -0.5527344,-0.22852 -0.2161466,10e-6 -0.3886725,0.0677 -0.5175781,0.20313 -0.03125,0.0378 -0.046875,0.0827 -0.046875,0.13476 0.00391,0.0612 0.035807,0.10287 0.095703,0.125 l 0.9609375,0.31836 c 0.118488,0.0443 0.2011702,0.0905 0.2480469,0.13868 0.092446,0.0911 0.13867,0.20117 0.1386719,0.33007 -1.9e-6,0.12891 -0.048179,0.24154 -0.1445313,0.33789 -0.1875015,0.19141 -0.432293,0.28711 -0.734375,0.28711 -0.3281257,0 -0.6080733,-0.13086 -0.8398437,-0.39257 -0.019531,-0.0273 -0.029297,-0.058 -0.029297,-0.0918 -10e-8,-0.043 0.014974,-0.0794 0.044922,-0.10938 0.03125,-0.0312 0.068359,-0.0469 0.1113281,-0.0469 0.042968,0 0.077474,0.0137 0.1035156,0.041 0.026041,0.0273 0.044922,0.0469 0.056641,0.0586 0.1523431,0.15234 0.3365877,0.22851 0.5527343,0.22851 0.2161446,0 0.3886705,-0.0677 0.5175782,-0.20312 0.031248,-0.0378 0.046873,-0.0827 0.046875,-0.13477 -0.00391,-0.0612 -0.035809,-0.10286 -0.095703,-0.125 l -0.9609375,-0.31836"
           style="fill:url(#linearGradient4146)"
           id="path4191" />
        <path
           d="m 8.34375,945.21984 c -0.042969,10e-6 -0.080078,-0.015 -0.1113281,-0.0449 -0.029948,-0.0312 -0.044922,-0.0684 -0.044922,-0.11133 -2e-7,-0.043 0.014974,-0.0794 0.044922,-0.10937 0.03125,-0.0312 0.068359,-0.0469 0.1113281,-0.0469 l 2.03125,0 c 0.04297,10e-6 0.07943,0.0156 0.109375,0.0469 0.03125,0.0299 0.04687,0.0664 0.04687,0.10937 -3e-6,0.043 -0.01563,0.0801 -0.04687,0.11133 -0.02995,0.0299 -0.06641,0.0449 -0.109375,0.0449 l -0.859375,0 0,2.65625 c -1.5e-6,0.043 -0.015626,0.0801 -0.046875,0.11133 -0.029949,0.0299 -0.066408,0.0449 -0.109375,0.0449 -0.04297,0 -0.080079,-0.015 -0.1113281,-0.0449 -0.029949,-0.0312 -0.044923,-0.0684 -0.044922,-0.11133 l 0,-2.65625 -0.859375,0"
           style="fill:url(#linearGradient4146)"
           id="path4193" />
        <path
           d="m 10.84375,945.06359 c 0,-0.043 0.01497,-0.0794 0.04492,-0.10937 0.03125,-0.0312 0.06836,-0.0469 0.111328,-0.0469 0.04297,10e-6 0.07943,0.0156 0.109375,0.0469 0.03125,0.0299 0.04687,0.0664 0.04687,0.10937 l 0,1.06446 c 0.195312,-0.1888 0.429687,-0.2832 0.703125,-0.28321 0.279946,10e-6 0.518879,0.0996 0.716797,0.29883 0.199217,0.19792 0.298826,0.43685 0.298828,0.7168 l 0,1.01562 c -2e-6,0.043 -0.01563,0.0801 -0.04687,0.11133 -0.02995,0.0299 -0.06641,0.0449 -0.109375,0.0449 -0.04297,0 -0.08008,-0.015 -0.111328,-0.0449 -0.02995,-0.0312 -0.04492,-0.0684 -0.04492,-0.11133 l 0,-1.01562 c -2e-6,-0.19401 -0.06901,-0.35937 -0.207031,-0.49609 -0.136721,-0.13802 -0.302085,-0.20703 -0.496094,-0.20704 -0.194011,10e-6 -0.360027,0.069 -0.498047,0.20704 -0.136719,0.13672 -0.205078,0.30208 -0.205078,0.49609 l 0,1.01562 c 0,0.043 -0.01563,0.0801 -0.04687,0.11133 -0.02995,0.0299 -0.06641,0.0449 -0.109375,0.0449 -0.04297,0 -0.08008,-0.015 -0.111328,-0.0449 -0.02995,-0.0312 -0.04492,-0.0684 -0.04492,-0.11133 l 0,-2.8125"
           style="fill:url(#linearGradient4146)"
           id="path4195" />
        <path
           d="m 15.048828,946.78234 c -0.02865,-0.14973 -0.100262,-0.2819 -0.214844,-0.39648 -0.152345,-0.15234 -0.33659,-0.22851 -0.552734,-0.22852 -0.216147,10e-6 -0.400391,0.0762 -0.552734,0.22852 -0.114584,0.11458 -0.186199,0.24675 -0.214844,0.39648 l 1.535156,0 m -0.166015,0.71875 c 0.04297,0 0.07942,0.0156 0.109375,0.0469 0.03125,0.0299 0.04687,0.0664 0.04687,0.10937 -3e-6,0.043 -0.01498,0.0801 -0.04492,0.11133 -0.201825,0.17578 -0.439455,0.26367 -0.712891,0.26367 -0.302084,0 -0.559897,-0.10677 -0.773437,-0.32031 -0.213542,-0.21354 -0.320313,-0.47135 -0.320313,-0.77344 0,-0.30208 0.106771,-0.55989 0.320313,-0.77343 0.21354,-0.21354 0.471353,-0.32031 0.773437,-0.32032 0.302082,10e-6 0.559894,0.10678 0.773438,0.32032 0.213539,0.21354 0.32031,0.47135 0.320312,0.77343 -2e-6,0.043 -0.01563,0.0801 -0.04687,0.11133 -0.02995,0.0299 -0.06641,0.0449 -0.109375,0.0449 l -1.705078,0 c 0.02865,0.14974 0.10026,0.28191 0.214844,0.39649 0.152343,0.15234 0.336587,0.22851 0.552734,0.22851 0.195311,0 0.36328,-0.0618 0.503906,-0.18554 0.02864,-0.0221 0.0612,-0.0332 0.09766,-0.0332"
           style="fill:url(#linearGradient4146)"
           id="path4197" />
      </g>
      <g
         transform="matrix(5.060342,0,0,5.060342,33.71202,-3765.045)"
         style="font-size:4px;font-style:normal;font-variant:normal;font-weight:normal;font-stretch:normal;line-height:125%;letter-spacing:0px;word-spacing:0px;fill:url(#linearGradient4152);fill-opacity:1;stroke:none;font-family:Comfortaa;-inkscape-font-specification:Comfortaa"
         id="flowRoot3853">
        <path
           d="m -4.59375,947.87609 c -5e-7,0.043 -0.015625,0.0801 -0.046875,0.11133 -0.029948,0.0299 -0.066407,0.0449 -0.109375,0.0449 -0.042969,0 -0.080078,-0.015 -0.1113281,-0.0449 -0.029948,-0.0312 -0.044922,-0.0684 -0.044922,-0.11133 l 0,-2.8125 c -2e-7,-0.043 0.014974,-0.0794 0.044922,-0.10937 0.03125,-0.0312 0.068359,-0.0469 0.1113281,-0.0469 0.046875,10e-6 0.087239,0.0189 0.1210938,0.0566 l 1.9101562,2.45704 0,-2.35743 c -2.3e-6,-0.043 0.014972,-0.0794 0.044922,-0.10937 0.031248,-0.0312 0.068357,-0.0469 0.1113281,-0.0469 0.042966,10e-6 0.079425,0.0156 0.109375,0.0469 0.031247,0.0299 0.046872,0.0664 0.046875,0.10937 l 0,2.8125 c -2.7e-6,0.043 -0.015628,0.0801 -0.046875,0.11133 -0.02995,0.0299 -0.066409,0.0449 -0.109375,0.0449 -0.045575,0 -0.084638,-0.0169 -0.1171875,-0.0508 l -1.9140625,-2.46093 0,2.35546"
           style="fill:url(#linearGradient4150)"
           id="path4200" />
        <path
           d="m -2.09375,945.06359 c -2e-7,-0.043 0.014974,-0.0794 0.044922,-0.10937 0.03125,-0.0312 0.068359,-0.0469 0.1113281,-0.0469 0.042968,10e-6 0.079427,0.0156 0.109375,0.0469 0.031249,0.0299 0.046874,0.0664 0.046875,0.10937 l 0,1.875 c -5e-7,0.21615 0.076171,0.4004 0.2285156,0.55274 0.1523429,0.15234 0.3365875,0.22851 0.5527344,0.22851 0.21614437,0 0.40038897,-0.0762 0.55273437,-0.22851 0.1523418,-0.15234 0.2285136,-0.33659 0.22851563,-0.55274 l 0,-1.875 c -2.03e-6,-0.043 0.0149719,-0.0794 0.0449219,-0.10937 0.0312479,-0.0312 0.0683572,-0.0469 0.11132812,-0.0469 0.04296652,10e-6 0.07942482,0.0156 0.109375,0.0469 0.03124767,0.0299 0.04687266,0.0664 0.046875,0.10937 l 0,1.875 c -2.34e-6,0.30209 -0.10677307,0.5599 -0.3203125,0.77344 -0.21354348,0.21354 -0.47135572,0.32031 -0.7734375,0.32031 -0.3020843,0 -0.5598965,-0.10677 -0.7734375,-0.32031 -0.2135419,-0.21354 -0.3203127,-0.47135 -0.3203125,-0.77344 l 0,-1.875"
           style="fill:url(#linearGradient4150)"
           id="path4202" />
        <path
           d="M 1.8242187,947.93664 0.71875,945.7257 l 0,2.15039 c -4.7e-7,0.043 -0.0156255,0.0801 -0.046875,0.11133 -0.0299483,0.0299 -0.0664066,0.0449 -0.109375,0.0449 -0.042969,0 -0.0800784,-0.015 -0.11132812,-0.0449 -0.0299481,-0.0312 -0.044922,-0.0684 -0.0449219,-0.11133 l 0,-2.8125 c -1.6e-7,-0.043 0.0149738,-0.0794 0.0449219,-0.10937 0.0312498,-0.0312 0.0683591,-0.0469 0.11132812,-0.0469 0.0624996,10e-6 0.10872354,0.0274 0.13867187,0.082 l 1.26757813,2.5371 1.2675781,-2.5371 c 0.029945,-0.0547 0.076169,-0.082 0.1386719,-0.082 0.042966,10e-6 0.079424,0.0156 0.109375,0.0469 0.031247,0.0299 0.046872,0.0664 0.046875,0.10937 l 0,2.8125 c -3.3e-6,0.043 -0.015628,0.0801 -0.046875,0.11133 -0.029951,0.0299 -0.066409,0.0449 -0.109375,0.0449 -0.042972,0 -0.080081,-0.015 -0.1113281,-0.0449 -0.029951,-0.0312 -0.044925,-0.0684 -0.044922,-0.11133 l 0,-2.15039 -1.1152344,2.23047 c -0.027346,0.0508 -0.072267,0.0762 -0.1347656,0.0762 -0.065106,0 -0.1132829,-0.0319 -0.1445313,-0.0957"
           style="fill:url(#linearGradient4150)"
           id="path4204" />
        <path
           d="m 4.15625,945.21984 0,0.9375 0.46875,0 c 0.1289052,10e-6 0.2389311,-0.0456 0.3300781,-0.13671 0.092447,-0.0924 0.1386705,-0.20313 0.1386719,-0.33204 -1.4e-6,-0.1289 -0.046225,-0.23893 -0.1386719,-0.33007 -0.091147,-0.0924 -0.2011729,-0.13867 -0.3300781,-0.13868 l -0.46875,0 m 0,1.25 0,1.25 0.625,0 c 0.1731758,0 0.3203111,-0.0605 0.4414062,-0.18164 0.1223942,-0.12239 0.1835921,-0.27018 0.1835938,-0.44336 -1.7e-6,-0.17317 -0.0612,-0.32031 -0.1835938,-0.4414 -0.1210951,-0.1224 -0.2682304,-0.18359 -0.4414062,-0.1836 l -0.625,0 M 4,944.90734 l 0.625,0 c 0.2161447,10e-6 0.4003893,0.0762 0.5527344,0.22852 0.1523421,0.15235 0.2285139,0.33659 0.2285156,0.55273 -1.7e-6,0.21615 -0.076174,0.4004 -0.2285156,0.55274 0.096353,0.0456 0.1855452,0.10872 0.2675781,0.18945 0.1822897,0.1836 0.2734355,0.40495 0.2734375,0.66406 -2e-6,0.25912 -0.091799,0.48047 -0.2753906,0.66407 -0.1822933,0.18229 -0.4029962,0.27343 -0.6621094,0.27343 l -0.78125,0 c -0.042969,0 -0.080078,-0.015 -0.1113281,-0.0449 -0.029948,-0.0312 -0.044922,-0.0684 -0.044922,-0.11133 l 0,-2.8125 c -2e-7,-0.043 0.014974,-0.0794 0.044922,-0.10937 0.03125,-0.0312 0.068359,-0.0469 0.1113281,-0.0469"
           style="fill:url(#linearGradient4150)"
           id="path4206" />
        <path
           d="m 6.1875,944.90734 1.875,0 c 0.042967,10e-6 0.079425,0.0156 0.109375,0.0469 0.031248,0.0299 0.046873,0.0664 0.046875,0.10937 -2.3e-6,0.043 -0.015627,0.0801 -0.046875,0.11133 -0.02995,0.0299 -0.066408,0.0449 -0.109375,0.0449 l -1.71875,0 0,1.09375 1.25,0 c 0.042967,10e-6 0.079425,0.0156 0.109375,0.0469 0.031248,0.0299 0.046873,0.0664 0.046875,0.10937 -1.9e-6,0.043 -0.015627,0.0801 -0.046875,0.11133 -0.02995,0.0299 -0.066408,0.0449 -0.109375,0.0449 l -1.25,0 0,1.09375 1.71875,0 c 0.042967,0 0.079425,0.0156 0.109375,0.0469 0.031248,0.0299 0.046873,0.0664 0.046875,0.10937 -2.3e-6,0.043 -0.015627,0.0801 -0.046875,0.11133 -0.02995,0.0299 -0.066408,0.0449 -0.109375,0.0449 l -1.875,0 c -0.042969,0 -0.080078,-0.015 -0.1113281,-0.0449 -0.029948,-0.0312 -0.044922,-0.0684 -0.044922,-0.11133 l 0,-2.8125 c -2e-7,-0.043 0.014974,-0.0794 0.044922,-0.10937 0.03125,-0.0312 0.068359,-0.0469 0.1113281,-0.0469"
           style="fill:url(#linearGradient4150)"
           id="path4208" />
        <path
           d="m 8.84375,945.21984 0,1.25 0.625,0 c 0.1731758,10e-6 0.3203111,-0.0605 0.4414063,-0.18164 0.1223937,-0.12239 0.1835917,-0.27018 0.1835937,-0.44336 -2e-6,-0.17317 -0.0612,-0.32031 -0.1835937,-0.4414 -0.1210952,-0.1224 -0.2682305,-0.18359 -0.4414063,-0.1836 l -0.625,0 m -0.15625,-0.3125 0.78125,0 c 0.2591132,10e-6 0.4798161,0.0918 0.662109,0.27539 0.183592,0.1823 0.275389,0.403 0.275391,0.66211 -2e-6,0.25912 -0.09115,0.47982 -0.273437,0.66211 -0.08464,0.0846 -0.1764344,0.14909 -0.2753911,0.19336 l 0.6796871,1.08985 c 0.01693,0.0247 0.02539,0.0534 0.02539,0.0859 -2e-6,0.043 -0.01563,0.0801 -0.04687,0.11133 -0.02995,0.0299 -0.06641,0.0449 -0.109375,0.0449 -0.05599,0 -0.101564,-0.0267 -0.136719,-0.0801 l -0.7324216,-1.17188 c -0.022137,0.001 -0.044923,0.002 -0.068359,0.002 l -0.625,0 0,1.09375 c -5e-7,0.043 -0.015626,0.0801 -0.046875,0.11133 -0.029948,0.0299 -0.066407,0.0449 -0.109375,0.0449 -0.042969,0 -0.080078,-0.015 -0.1113281,-0.0449 -0.029948,-0.0312 -0.044922,-0.0684 -0.044922,-0.11133 l 0,-2.8125 c -2e-7,-0.043 0.014974,-0.0794 0.044922,-0.10937 0.03125,-0.0312 0.068359,-0.0469 0.1113281,-0.0469"
           style="fill:url(#linearGradient4150)"
           id="path4210" />
        <path
           d="m 11.34375,947.79797 c -10e-7,0.0651 -0.02279,0.12044 -0.06836,0.16601 -0.04557,0.0456 -0.100912,0.0684 -0.166016,0.0684 -0.0651,0 -0.120443,-0.0228 -0.166016,-0.0684 -0.04557,-0.0456 -0.06836,-0.10091 -0.06836,-0.16601 0,-0.0651 0.02279,-0.12044 0.06836,-0.16602 0.04557,-0.0456 0.100912,-0.0684 0.166016,-0.0684 0.0651,0 0.120442,0.0228 0.166016,0.0684 0.04557,0.0456 0.06836,0.10092 0.06836,0.16602 m -0.390625,-2.73438 c 0,-0.043 0.01497,-0.0794 0.04492,-0.10937 0.03125,-0.0312 0.06836,-0.0469 0.111328,-0.0469 0.04297,10e-6 0.07943,0.0156 0.109375,0.0469 0.03125,0.0299 0.04687,0.0664 0.04687,0.10937 l 0,2.18946 c -10e-7,0.0417 -0.01497,0.0775 -0.04492,0.10742 -0.03125,0.0312 -0.06836,0.0469 -0.111328,0.0469 -0.04297,0 -0.07943,-0.0156 -0.109375,-0.0469 -0.03125,-0.0299 -0.04687,-0.0658 -0.04687,-0.10742 l 0,-2.18946"
           style="fill:url(#linearGradient4150)"
           id="path4212" />
      </g>
    </g>
  </g>
</svg>
